<svg xmlns="http://www.w3.org/2000/svg" width="960" height="540" viewBox="0 0 960 540">
  <defs>
    <linearGradient id="g" x1="0" y1="0" x2="1" y2="1">
      <stop offset="0" stop-color="#070f25"/>
      <stop offset="1" stop-color="#1e2f56"/>
    </linearGradient>
  </defs>
  <rect width="960" height="540" fill="url(#g)"/>
  <g fill="#dbe7ff" opacity="0.85">
    <circle cx="90" cy="80" r="2"/>
    <circle cx="200" cy="120" r="2"/>
    <circle cx="300" cy="70" r="1.5"/>
    <circle cx="460" cy="140" r="2"/>
    <circle cx="630" cy="80" r="1.5"/>
    <circle cx="770" cy="130" r="2"/>
    <circle cx="890" cy="95" r="1.5"/>
  </g>
  <polygon points="670,180 740,160 780,220 750,285 685,295 640,238" fill="#a8b8d9"/>
  <polygon points="430,250 500,220 548,270 528,335 465,350 410,305" fill="#8798be"/>
  <polygon points="250,160 300,140 340,180 320,230 268,242 225,200" fill="#c6d3ec"/>
  <text x="60" y="492" font-family="Segoe UI, sans-serif" font-size="66" fill="#f0f4ff" opacity="0.95">ASTEROIDS</text>
</svg>
